{"title":"Mirrors.2.2010.DvDRip.H264.Feel-Free","uid":5866300,"size":699598908,"categoryP":"video","categoryS":"movies","magnet":"?xt=urn:btih:be6536675924fb7d3ca2eb41884750b8ceb49354&amp;dn=Mirrors.2.2010.DvDRip.H264.Feel-Free&amp;tr=udp%3A%2F%2Ftracker.openbittorrent.com%3A80&amp;tr=udp%3A%2F%2Fopen.demonii.com%3A1337&amp;tr=udp%3A%2F%2Ftracker.coppersurfer.tk%3A6969&amp;tr=udp%3A%2F%2Fexodus.desync.com%3A6969","seeders":0,"leechers":0,"uploader":"neon","files":-1,"time":1286226741,"description":"When Max, who is recovering from a traumatic accident, takes a job as a nighttime security guard, he begins to see visions of a young mysterious woman in the store's mirror.\n\nGenre:Horror | Mystery | Thriller\nLanguage:English\n &lt;a href=&quot; http://www.imdb.com/title/tt1576699/&quot; rel=&quot;nofollow&quot; target=&quot;_NEW&quot;&gt; http://www.imdb.com/title/tt1576699/&lt;/a&gt;\nSource:DVD\n\nGeneral\nComplete name :Mirrors.2.2010.DvDRip.H264.Feel-Free\nFormat : MPEG-4\nFormat profile : Base Media\nCodec ID : isom\nFile size : 667 MiB\nDuration : 1h 26mn\nOverall bit rate : 1 081 Kbps\nVideo #2\nCodec ID : avc1\nCodec ID/Info : Advanced Video Coding\nDuration : 1h 26mn\nBit rate mode : Variable\nBit rate : 914 Kbps\nWidth : 720 pixels\nHeight : 384 pixels\nDisplay aspect ratio : 1.875\nFrame rate mode : Constant\nFrame rate : 25.000 fps\nResolution : 24 bits\nColorimetry : 4:2:0\nScan type : Progressive\nBits/(Pixel*Frame) : 0.132\nStream size : 564 MiB (85%)\nAudio #1\nID : 1\nFormat : AAC\nFormat/Info : Advanced Audio Codec\nFormat version : Version 4\nFormat profile : LC\nFormat settings, SBR : No\nCodec ID : 40\nDuration : 1h 26mn\nBit rate mode : Constant\nBit rate : 160 Kbps\nChannel(s) : 2 channels\nChannel positions : L R\nSampling rate : 48.0 KHz\nResolution : 16 bits\nStream size : 98.7 MiB (15%)","torrent":{"xt":"urn:btih:be6536675924fb7d3ca2eb41884750b8ceb49354","amp;dn":"Mirrors.2.2010.DvDRip.H264.Feel-Free","amp;tr":["udp%3A%2F%2Ftracker.openbittorrent.com%3A80","udp%3A%2F%2Fopen.demonii.com%3A1337","udp%3A%2F%2Ftracker.coppersurfer.tk%3A6969","udp%3A%2F%2Fexodus.desync.com%3A6969"],"infoHash":"be6536675924fb7d3ca2eb41884750b8ceb49354","infoHashBuffer":{"type":"Buffer","data":[190,101,54,103,89,36,251,125,60,162,235,65,136,71,80,184,206,180,147,84]},"announce":[],"urlList":[]}}